<mxfile host="app.diagrams.net" modified="2024-03-31T19:15:17.083Z" agent="Mozilla/5.0 (Windows NT 10.0; Win64; x64) AppleWebKit/537.36 (KHTML, like Gecko) Chrome/123.0.0.0 Safari/537.36" etag="SoukMhj1O4Z2NiPC5vxb" version="24.2.1" type="device">
  <diagram id="veOgcDAYwcQMUDRxtFas" name="Page-1">
    <mxGraphModel dx="295" dy="506" grid="1" gridSize="10" guides="1" tooltips="1" connect="1" arrows="1" fold="1" page="1" pageScale="1" pageWidth="827" pageHeight="1169" math="0" shadow="0">
      <root>
        <mxCell id="0" />
        <mxCell id="1" parent="0" />
        <mxCell id="uFT6ipCB4S1YdqI-UAr_-30" style="edgeStyle=elbowEdgeStyle;rounded=0;orthogonalLoop=1;jettySize=auto;html=1;elbow=vertical;curved=0;dashed=1;endArrow=open;endFill=0;dashPattern=8 8;fontSize=8;" parent="1" edge="1">
          <mxGeometry relative="1" as="geometry">
            <mxPoint x="254.33" y="180" as="sourcePoint" />
            <mxPoint x="130.10000000000002" y="180.2" as="targetPoint" />
          </mxGeometry>
        </mxCell>
        <mxCell id="uFT6ipCB4S1YdqI-UAr_-31" value="return PSC" style="edgeLabel;html=1;align=center;verticalAlign=middle;resizable=0;points=[];fontSize=8;" parent="uFT6ipCB4S1YdqI-UAr_-30" vertex="1" connectable="0">
          <mxGeometry x="-0.0559" y="-1" relative="1" as="geometry">
            <mxPoint x="-3" y="-9" as="offset" />
          </mxGeometry>
        </mxCell>
        <mxCell id="uFT6ipCB4S1YdqI-UAr_-32" value="PSC" style="shape=umlLifeline;perimeter=lifelinePerimeter;whiteSpace=wrap;html=1;container=0;dropTarget=0;collapsible=0;recursiveResize=0;outlineConnect=0;portConstraint=eastwest;newEdgeStyle={&quot;edgeStyle&quot;:&quot;elbowEdgeStyle&quot;,&quot;elbow&quot;:&quot;vertical&quot;,&quot;curved&quot;:0,&quot;rounded&quot;:0};" parent="1" vertex="1">
          <mxGeometry x="210" y="50" width="80" height="140" as="geometry" />
        </mxCell>
        <mxCell id="uFT6ipCB4S1YdqI-UAr_-34" value="" style="html=1;points=[[0,0,0,0,5],[0,1,0,0,-5],[1,0,0,0,5],[1,1,0,0,-5]];perimeter=orthogonalPerimeter;outlineConnect=0;targetShapes=umlLifeline;portConstraint=eastwest;newEdgeStyle={&quot;curved&quot;:0,&quot;rounded&quot;:0};fontSize=8;" parent="uFT6ipCB4S1YdqI-UAr_-32" vertex="1">
          <mxGeometry x="35" y="70" width="10" height="60" as="geometry" />
        </mxCell>
        <mxCell id="uFT6ipCB4S1YdqI-UAr_-36" value="Location" style="shape=umlLifeline;perimeter=lifelinePerimeter;whiteSpace=wrap;html=1;container=0;dropTarget=0;collapsible=0;recursiveResize=0;outlineConnect=0;portConstraint=eastwest;newEdgeStyle={&quot;edgeStyle&quot;:&quot;elbowEdgeStyle&quot;,&quot;elbow&quot;:&quot;vertical&quot;,&quot;curved&quot;:0,&quot;rounded&quot;:0};" parent="1" vertex="1">
          <mxGeometry x="370" y="50" width="80" height="230" as="geometry" />
        </mxCell>
        <mxCell id="uFT6ipCB4S1YdqI-UAr_-37" value="" style="html=1;points=[[0,0,0,0,5],[0,1,0,0,-5],[1,0,0,0,5],[1,1,0,0,-5]];perimeter=orthogonalPerimeter;outlineConnect=0;targetShapes=umlLifeline;portConstraint=eastwest;newEdgeStyle={&quot;curved&quot;:0,&quot;rounded&quot;:0};fontSize=8;" parent="uFT6ipCB4S1YdqI-UAr_-36" vertex="1">
          <mxGeometry x="34.660000000000025" y="160" width="10" height="60" as="geometry" />
        </mxCell>
        <mxCell id="22XJcEMORKsk2JIWvPvU-2" value="" style="html=1;points=[[0,0,0,0,5],[0,1,0,0,-5],[1,0,0,0,5],[1,1,0,0,-5]];perimeter=orthogonalPerimeter;outlineConnect=0;targetShapes=umlLifeline;portConstraint=eastwest;newEdgeStyle={&quot;curved&quot;:0,&quot;rounded&quot;:0};fontSize=8;" parent="uFT6ipCB4S1YdqI-UAr_-36" vertex="1">
          <mxGeometry x="35" y="90" width="10" height="20" as="geometry" />
        </mxCell>
        <mxCell id="uFT6ipCB4S1YdqI-UAr_-40" value="User" style="shape=umlLifeline;perimeter=lifelinePerimeter;whiteSpace=wrap;html=1;container=0;dropTarget=0;collapsible=0;recursiveResize=0;outlineConnect=0;portConstraint=eastwest;newEdgeStyle={&quot;edgeStyle&quot;:&quot;elbowEdgeStyle&quot;,&quot;elbow&quot;:&quot;vertical&quot;,&quot;curved&quot;:0,&quot;rounded&quot;:0};" parent="1" vertex="1">
          <mxGeometry x="120" y="50" width="20" height="310" as="geometry" />
        </mxCell>
        <mxCell id="uFT6ipCB4S1YdqI-UAr_-41" value="Device" style="shape=umlLifeline;perimeter=lifelinePerimeter;whiteSpace=wrap;html=1;container=0;dropTarget=0;collapsible=0;recursiveResize=0;outlineConnect=0;portConstraint=eastwest;newEdgeStyle={&quot;edgeStyle&quot;:&quot;elbowEdgeStyle&quot;,&quot;elbow&quot;:&quot;vertical&quot;,&quot;curved&quot;:0,&quot;rounded&quot;:0};" parent="1" vertex="1">
          <mxGeometry x="490" y="50" width="80" height="310" as="geometry" />
        </mxCell>
        <mxCell id="22XJcEMORKsk2JIWvPvU-8" value="" style="html=1;points=[[0,0,0,0,5],[0,1,0,0,-5],[1,0,0,0,5],[1,1,0,0,-5]];perimeter=orthogonalPerimeter;outlineConnect=0;targetShapes=umlLifeline;portConstraint=eastwest;newEdgeStyle={&quot;curved&quot;:0,&quot;rounded&quot;:0};fontSize=8;" parent="uFT6ipCB4S1YdqI-UAr_-41" vertex="1">
          <mxGeometry x="35" y="180" width="10" height="20" as="geometry" />
        </mxCell>
        <mxCell id="uFT6ipCB4S1YdqI-UAr_-42" value="User" style="whiteSpace=wrap;html=1;" parent="1" vertex="1">
          <mxGeometry x="110" y="50" width="40" height="40" as="geometry" />
        </mxCell>
        <mxCell id="uFT6ipCB4S1YdqI-UAr_-43" style="edgeStyle=elbowEdgeStyle;rounded=0;orthogonalLoop=1;jettySize=auto;html=1;elbow=vertical;curved=0;endArrow=open;endFill=0;fontSize=8;" parent="1" edge="1">
          <mxGeometry relative="1" as="geometry">
            <mxPoint x="130.66666666666669" y="119.99999999999999" as="sourcePoint" />
            <mxPoint x="250" y="119.99999999999999" as="targetPoint" />
          </mxGeometry>
        </mxCell>
        <mxCell id="uFT6ipCB4S1YdqI-UAr_-44" value="GET PSC" style="edgeLabel;html=1;align=center;verticalAlign=middle;resizable=0;points=[];fontSize=8;" parent="uFT6ipCB4S1YdqI-UAr_-43" vertex="1" connectable="0">
          <mxGeometry x="0.0456" y="-2" relative="1" as="geometry">
            <mxPoint y="-12" as="offset" />
          </mxGeometry>
        </mxCell>
        <mxCell id="uFT6ipCB4S1YdqI-UAr_-45" value="" style="whiteSpace=wrap;html=1;fontSize=8;" parent="1" vertex="1">
          <mxGeometry x="525" y="310" width="10" height="30" as="geometry" />
        </mxCell>
        <mxCell id="uFT6ipCB4S1YdqI-UAr_-46" style="edgeStyle=elbowEdgeStyle;rounded=0;orthogonalLoop=1;jettySize=auto;html=1;elbow=vertical;curved=0;endArrow=open;endFill=0;fontSize=8;" parent="1" source="uFT6ipCB4S1YdqI-UAr_-40" edge="1">
          <mxGeometry relative="1" as="geometry">
            <mxPoint x="135.5866666666667" y="210" as="sourcePoint" />
            <mxPoint x="410" y="210" as="targetPoint" />
          </mxGeometry>
        </mxCell>
        <mxCell id="uFT6ipCB4S1YdqI-UAr_-47" value="GET Full Location" style="edgeLabel;html=1;align=center;verticalAlign=middle;resizable=0;points=[];fontSize=8;" parent="uFT6ipCB4S1YdqI-UAr_-46" vertex="1" connectable="0">
          <mxGeometry x="0.0456" y="-2" relative="1" as="geometry">
            <mxPoint x="54" y="-12" as="offset" />
          </mxGeometry>
        </mxCell>
        <mxCell id="uFT6ipCB4S1YdqI-UAr_-48" style="edgeStyle=elbowEdgeStyle;rounded=0;orthogonalLoop=1;jettySize=auto;html=1;elbow=vertical;curved=0;dashed=1;endArrow=open;endFill=0;dashPattern=8 8;fontSize=8;" parent="1" edge="1">
          <mxGeometry relative="1" as="geometry">
            <mxPoint x="414.66" y="270" as="sourcePoint" />
            <mxPoint x="130.10000000000002" y="270" as="targetPoint" />
          </mxGeometry>
        </mxCell>
        <mxCell id="uFT6ipCB4S1YdqI-UAr_-49" value="return Location" style="edgeLabel;html=1;align=center;verticalAlign=middle;resizable=0;points=[];fontSize=8;" parent="uFT6ipCB4S1YdqI-UAr_-48" vertex="1" connectable="0">
          <mxGeometry x="-0.0559" y="-1" relative="1" as="geometry">
            <mxPoint x="50" y="-9" as="offset" />
          </mxGeometry>
        </mxCell>
        <mxCell id="uFT6ipCB4S1YdqI-UAr_-50" style="edgeStyle=elbowEdgeStyle;rounded=0;orthogonalLoop=1;jettySize=auto;html=1;elbow=vertical;curved=0;endArrow=open;endFill=0;fontSize=8;" parent="1" target="uFT6ipCB4S1YdqI-UAr_-41" edge="1">
          <mxGeometry relative="1" as="geometry">
            <mxPoint x="130" y="310" as="sourcePoint" />
            <mxPoint x="410" y="310" as="targetPoint" />
          </mxGeometry>
        </mxCell>
        <mxCell id="uFT6ipCB4S1YdqI-UAr_-51" value="&lt;font face=&quot;Helvetica&quot;&gt;PATCH ElectronicLock | toggleIsEngaged()&lt;/font&gt;" style="edgeLabel;html=1;align=center;verticalAlign=middle;resizable=0;points=[];fontSize=8;" parent="uFT6ipCB4S1YdqI-UAr_-50" vertex="1" connectable="0">
          <mxGeometry x="0.0456" y="-2" relative="1" as="geometry">
            <mxPoint x="-9" y="-12" as="offset" />
          </mxGeometry>
        </mxCell>
        <mxCell id="uFT6ipCB4S1YdqI-UAr_-52" style="edgeStyle=elbowEdgeStyle;rounded=0;orthogonalLoop=1;jettySize=auto;html=1;elbow=vertical;curved=0;dashed=1;endArrow=open;endFill=0;dashPattern=8 8;fontSize=8;" parent="1" target="uFT6ipCB4S1YdqI-UAr_-40" edge="1">
          <mxGeometry relative="1" as="geometry">
            <mxPoint x="524.5600000000001" y="340" as="sourcePoint" />
            <mxPoint x="240.00000000000003" y="340" as="targetPoint" />
          </mxGeometry>
        </mxCell>
        <mxCell id="uFT6ipCB4S1YdqI-UAr_-53" value="return status" style="edgeLabel;html=1;align=center;verticalAlign=middle;resizable=0;points=[];fontSize=8;" parent="uFT6ipCB4S1YdqI-UAr_-52" vertex="1" connectable="0">
          <mxGeometry x="-0.0559" y="-1" relative="1" as="geometry">
            <mxPoint x="-8" y="-9" as="offset" />
          </mxGeometry>
        </mxCell>
        <mxCell id="uFT6ipCB4S1YdqI-UAr_-55" value="" style="shape=umlDestroy;whiteSpace=wrap;html=1;strokeWidth=3;targetShapes=umlLifeline;" parent="1" vertex="1">
          <mxGeometry x="245" y="190" width="10" height="10" as="geometry" />
        </mxCell>
        <mxCell id="uFT6ipCB4S1YdqI-UAr_-56" value="" style="shape=umlDestroy;whiteSpace=wrap;html=1;strokeWidth=3;targetShapes=umlLifeline;" parent="1" vertex="1">
          <mxGeometry x="405" y="280" width="10" height="10" as="geometry" />
        </mxCell>
        <mxCell id="uFT6ipCB4S1YdqI-UAr_-57" value="" style="shape=umlDestroy;whiteSpace=wrap;html=1;strokeWidth=3;targetShapes=umlLifeline;" parent="1" vertex="1">
          <mxGeometry x="525" y="360" width="10" height="10" as="geometry" />
        </mxCell>
        <mxCell id="22XJcEMORKsk2JIWvPvU-3" value="" style="endArrow=classic;html=1;rounded=0;" parent="1" edge="1">
          <mxGeometry width="50" height="50" relative="1" as="geometry">
            <mxPoint x="255" y="140" as="sourcePoint" />
            <mxPoint x="405" y="140" as="targetPoint" />
          </mxGeometry>
        </mxCell>
        <mxCell id="22XJcEMORKsk2JIWvPvU-4" value="GET min Locations" style="text;html=1;align=center;verticalAlign=middle;resizable=0;points=[];autosize=1;strokeColor=none;fillColor=none;fontSize=8;" parent="1" vertex="1">
          <mxGeometry x="290" y="120" width="90" height="20" as="geometry" />
        </mxCell>
        <mxCell id="22XJcEMORKsk2JIWvPvU-5" style="edgeStyle=elbowEdgeStyle;rounded=0;orthogonalLoop=1;jettySize=auto;html=1;elbow=vertical;curved=0;dashed=1;endArrow=open;endFill=0;dashPattern=8 8;fontSize=8;" parent="1" target="uFT6ipCB4S1YdqI-UAr_-34" edge="1">
          <mxGeometry relative="1" as="geometry">
            <mxPoint x="405" y="160" as="sourcePoint" />
            <mxPoint x="280.77" y="160.2" as="targetPoint" />
          </mxGeometry>
        </mxCell>
        <mxCell id="22XJcEMORKsk2JIWvPvU-6" value="return min Locations" style="edgeLabel;html=1;align=center;verticalAlign=middle;resizable=0;points=[];fontSize=8;" parent="22XJcEMORKsk2JIWvPvU-5" vertex="1" connectable="0">
          <mxGeometry x="-0.0559" y="-1" relative="1" as="geometry">
            <mxPoint x="1" y="6" as="offset" />
          </mxGeometry>
        </mxCell>
        <mxCell id="22XJcEMORKsk2JIWvPvU-7" value="" style="endArrow=classic;html=1;rounded=0;" parent="1" edge="1">
          <mxGeometry width="50" height="50" relative="1" as="geometry">
            <mxPoint x="414" y="230" as="sourcePoint" />
            <mxPoint x="530" y="230" as="targetPoint" />
          </mxGeometry>
        </mxCell>
        <mxCell id="22XJcEMORKsk2JIWvPvU-9" style="edgeStyle=elbowEdgeStyle;rounded=0;orthogonalLoop=1;jettySize=auto;html=1;elbow=vertical;curved=0;dashed=1;endArrow=open;endFill=0;dashPattern=8 8;fontSize=8;" parent="1" target="uFT6ipCB4S1YdqI-UAr_-37" edge="1">
          <mxGeometry relative="1" as="geometry">
            <mxPoint x="535" y="250" as="sourcePoint" />
            <mxPoint x="420" y="250" as="targetPoint" />
          </mxGeometry>
        </mxCell>
        <mxCell id="22XJcEMORKsk2JIWvPvU-10" value="return min Devices" style="edgeLabel;html=1;align=center;verticalAlign=middle;resizable=0;points=[];fontSize=8;" parent="22XJcEMORKsk2JIWvPvU-9" vertex="1" connectable="0">
          <mxGeometry x="-0.0559" y="-1" relative="1" as="geometry">
            <mxPoint x="-8" y="11" as="offset" />
          </mxGeometry>
        </mxCell>
        <mxCell id="22XJcEMORKsk2JIWvPvU-11" value="GET min Devices" style="text;html=1;align=center;verticalAlign=middle;resizable=0;points=[];autosize=1;strokeColor=none;fillColor=none;fontSize=8;" parent="1" vertex="1">
          <mxGeometry x="430" y="210" width="90" height="20" as="geometry" />
        </mxCell>
      </root>
    </mxGraphModel>
  </diagram>
</mxfile>
